<svg width="44" height="45" viewBox="0 0 44 45" fill="none" xmlns="http://www.w3.org/2000/svg">
<rect y="0.629639" width="44" height="44" rx="22" fill="#636363"/>
<path fill-rule="evenodd" clip-rule="evenodd" d="M22.2344 17.264C22.5468 16.9516 23.0534 16.9516 23.3658 17.264L28.1658 22.064C28.4782 22.3764 28.4782 22.8829 28.1658 23.1953L23.3658 27.9953C23.0534 28.3078 22.5468 28.3078 22.2344 27.9953C21.922 27.6829 21.922 27.1764 22.2344 26.864L25.6687 23.4297L16.4001 23.4297C15.9583 23.4297 15.6001 23.0715 15.6001 22.6297C15.6001 22.1878 15.9583 21.8297 16.4001 21.8297H25.6687L22.2344 18.3953C21.922 18.0829 21.922 17.5764 22.2344 17.264Z" fill="#1A1919"/>
</svg>
