<svg width="44" height="45" viewBox="0 0 44 45" fill="none" xmlns="http://www.w3.org/2000/svg">
<rect y="0.629639" width="44" height="44" rx="22" fill="#636363"/>
<path fill-rule="evenodd" clip-rule="evenodd" d="M21.7658 27.9953C21.4534 28.3078 20.9468 28.3078 20.6344 27.9953L15.8344 23.1953C15.522 22.8829 15.522 22.3764 15.8344 22.064L20.6344 17.264C20.9468 16.9516 21.4534 16.9516 21.7658 17.264C22.0782 17.5764 22.0782 18.0829 21.7658 18.3953L18.3315 21.8297H27.6001C28.0419 21.8297 28.4001 22.1878 28.4001 22.6297C28.4001 23.0715 28.0419 23.4297 27.6001 23.4297L18.3315 23.4297L21.7658 26.864C22.0782 27.1764 22.0782 27.6829 21.7658 27.9953Z" fill="#212121"/>
</svg>
